<svg width="461" height="294" viewBox="0 0 461 294" fill="none" xmlns="http://www.w3.org/2000/svg">
<path d="M202.603 1.1158L125.375 1.22363L125.525 108.896L202.753 108.788L202.603 1.1158Z" fill="black"/>
<path d="M339.329 108.577L262.101 108.704L202.602 1.09453L279.829 0.989258L339.329 108.577Z" fill="black"/>
<path d="M59.173 265.241L26.1831 225.966V265.241H0V157.333H26.1831V220.747L56.5417 186.713H86.2695L53.5841 221.79L90.0752 265.241H59.173Z" fill="black"/>
<path d="M130.965 267.414C116.199 267.414 81.8828 263.522 81.8828 227.357V225.313C81.8828 213.047 86.6454 184.516 130.813 184.516H135.619C153.886 184.516 184.549 189.8 184.549 225.16V227.487C184.549 245.689 176.025 267.414 135.467 267.414H130.965ZM132.422 203.153C112.002 203.153 108.936 217.223 108.936 225.617C108.936 232.467 111.219 248.364 132.422 248.364H134.032C151.342 248.364 157.518 236.599 157.518 225.617C157.518 220.354 155.822 203.153 134.032 203.153H132.422Z" fill="black"/>
<path d="M259.467 265.24V224.312C259.467 214.918 254.096 204.893 239.047 204.893C223.998 204.893 217.453 215.483 217.453 225.313V265.24H191.27V186.712H217.148V201.413L219.062 199.108C222.65 194.802 232.915 184.82 250.943 184.82H252.4C275.234 184.82 285.629 199.934 285.629 213.983V265.24H259.446H259.467Z" fill="black"/>
<path d="M329.198 265.239C316.215 265.239 309.343 258.085 309.343 244.515V204.892H291.75V186.712H309.343V162.138H335.374V186.712H353.837V204.892H335.374V235.642C335.374 241.883 336.962 245.754 344.899 245.754H353.837V265.239H329.198Z" fill="black"/>
<path d="M374.716 293.011V274.983H391.374C396.158 274.983 396.68 271.895 396.68 270.547C396.68 268.307 396.071 266.437 393.962 262.066L360.059 186.713H388.743L411.881 246.517L434.868 186.713H460.985L424.668 274.048C418.818 287.683 411.794 293.011 399.638 293.011H374.694H374.716Z" fill="black"/>
</svg>
