<svg width="461" height="293" viewBox="0 0 461 293" fill="none" xmlns="http://www.w3.org/2000/svg">
<path d="M202.603 0.126545L125.375 0.234375L125.525 107.907L202.753 107.799L202.603 0.126545Z" fill="white"/>
<path d="M339.329 107.588L262.101 107.714L202.602 0.105272L279.829 0L339.329 107.588Z" fill="white"/>
<path d="M59.173 264.251L26.1831 224.977V264.251H0V156.344H26.1831V219.757L56.5417 185.724H86.2695L53.5841 220.801L90.0752 264.251H59.173Z" fill="white"/>
<path d="M130.965 266.425C116.199 266.425 81.8828 262.532 81.8828 226.368V224.323C81.8828 212.058 86.6454 183.526 130.813 183.526H135.619C153.886 183.526 184.549 188.811 184.549 224.171V226.498C184.549 244.7 176.025 266.425 135.467 266.425H130.965ZM132.422 202.163C112.002 202.163 108.936 216.234 108.936 224.628C108.936 231.478 111.219 247.375 132.422 247.375H134.032C151.342 247.375 157.518 235.61 157.518 224.628C157.518 219.365 155.822 202.163 134.032 202.163H132.422Z" fill="white"/>
<path d="M259.467 264.251V223.323C259.467 213.929 254.096 203.903 239.047 203.903C223.998 203.903 217.453 214.494 217.453 224.324V264.251H191.27V185.723H217.148V200.424L219.062 198.119C222.65 193.813 232.915 183.831 250.943 183.831H252.4C275.234 183.831 285.629 198.945 285.629 212.994V264.251H259.446H259.467Z" fill="white"/>
<path d="M329.198 264.25C316.215 264.25 309.343 257.095 309.343 243.525V203.903H291.75V185.722H309.343V161.148H335.374V185.722H353.837V203.903H335.374V234.653C335.374 240.894 336.962 244.765 344.899 244.765H353.837V264.25H329.198Z" fill="white"/>
<path d="M374.716 292.022V273.994H391.374C396.158 273.994 396.68 270.906 396.68 269.557C396.68 267.318 396.071 265.447 393.962 261.076L360.059 185.724H388.743L411.881 245.527L434.868 185.724H460.985L424.668 273.059C418.818 286.694 411.794 292.022 399.638 292.022H374.694H374.716Z" fill="white"/>
</svg>
