<svg width="707" height="116" viewBox="0 0 707 116" fill="none" xmlns="http://www.w3.org/2000/svg">
<path d="M313.361 92.1599L281.081 58.6168V92.1599H255.461V0H281.081V54.1593L310.787 25.0923H339.875L307.893 55.0508L343.599 92.1599H313.361Z" fill="black"/>
<path d="M383.613 94.0166C369.164 94.0166 335.586 90.692 335.586 59.8049V58.059C335.586 47.5838 340.246 23.2158 383.464 23.2158H388.167C406.041 23.2158 436.045 27.7291 436.045 57.929V59.9163C436.045 75.462 427.703 94.0166 388.018 94.0166H383.613ZM385.039 39.133C365.057 39.133 362.057 51.1498 362.057 58.319C362.057 64.1696 364.291 77.7465 385.039 77.7465H386.613C403.551 77.7465 409.595 67.6985 409.595 58.319C409.595 53.8243 407.935 39.133 386.613 39.133H385.039Z" fill="black"/>
<path d="M509.348 92.159V57.2044C509.348 49.1808 504.093 40.6186 489.367 40.6186C474.642 40.6186 468.237 49.6637 468.237 58.0588V92.159H442.617V25.0915H467.939V37.6469L469.812 35.6781C473.323 32.0007 483.367 23.4756 501.007 23.4756H502.433C524.776 23.4756 534.947 36.3839 534.947 48.3822V92.159H509.327H509.348Z" fill="black"/>
<path d="M577.58 92.1597C564.876 92.1597 558.152 86.0492 558.152 74.4595V40.6193H540.938V25.0921H558.152V4.10449H583.623V25.0921H601.689V40.6193H583.623V66.8817C583.623 72.2122 585.177 75.5182 592.944 75.5182H601.689V92.1597H577.58Z" fill="black"/>
<path d="M622.116 115.878V100.481H638.415C643.097 100.481 643.607 97.8437 643.607 96.6922C643.607 94.7792 643.012 93.1819 640.948 89.4487L607.773 25.0928H635.841L658.482 76.1689L680.974 25.0928H706.53L670.994 99.6825C665.27 111.328 658.396 115.878 646.501 115.878H622.094H622.116Z" fill="black"/>
<path d="M75.5667 0.109078L0 0.201172L0.147106 92.16L75.7138 92.0679L75.5667 0.109078Z" fill="black"/>
<path d="M209.353 91.888L133.787 91.9959L75.5664 0.0908856L151.133 0.000976562L209.353 91.888Z" fill="black"/>
</svg>
