<?xml version="1.0" encoding="UTF-8" standalone="no"?>
<svg
   xmlns:dc="http://purl.org/dc/elements/1.1/"
   xmlns:cc="http://creativecommons.org/ns#"
   xmlns:rdf="http://www.w3.org/1999/02/22-rdf-syntax-ns#"
   xmlns:svg="http://www.w3.org/2000/svg"
   xmlns="http://www.w3.org/2000/svg"
   viewBox="0 0 119.9996 159.99986"
   height="159.99986"
   width="119.9996"
   xml:space="preserve"
   id="svg1011"
   version="1.1"><metadata
     id="metadata1017"><rdf:RDF><cc:Work
         rdf:about=""><dc:format>image/svg+xml</dc:format><dc:type
           rdf:resource="http://purl.org/dc/dcmitype/StillImage" /><dc:title></dc:title></cc:Work></rdf:RDF></metadata><defs
     id="defs1015" /><g
     transform="matrix(1.3333333,0,0,-1.3333333,0,159.99987)"
     id="g1019"><path
       id="path1021"
       style="fill:#e6c000;fill-opacity:1;fill-rule:evenodd;stroke:none"
       d="M 85.5193,78.9403 V 44.6012 h -9.3118 l -3.7412,2.4743 -2.4704,1.6334 v 15.0783 c 3.5294,1.0006 6.2155,6.0959 6.2155,12.2326 0,1.0063 -0.0723,1.984 -0.2089,2.9205 z" /><path
       id="path1023"
       style="fill:#e67700;fill-opacity:1;fill-rule:evenodd;stroke:none"
       d="M 67.2797,111.2128 V 78.9403 h -5.8322 c -0.1361,-0.9365 -0.2089,-1.9142 -0.2089,-2.9205 0,-6.0352 2.5979,-11.063 6.0411,-12.1799 V 48.5935 l -2.2954,-1.518 -3.7415,-2.4743 h -4.013 V 80.221 c 0,3.8257 -2.2941,7.1017 -5.4731,8.3132 v 17.532 h 0.1366 c 0.7262,0 1.3204,0.6392 1.3204,1.4213 v 3.7253 z" /><path
       id="path1025"
       style="fill:#4fc8f4;fill-opacity:1;fill-rule:evenodd;stroke:none"
       d="m 46.3334,88.5342 v 17.532 h -0.1369 c -0.7259,0 -1.3207,0.6392 -1.3207,1.4213 v 3.8931 c 0,0.7824 0.5948,1.4216 1.3207,1.4216 h 0.1369 v 7.1974 H 30.81 V 84.617 h 4.8051 V 67.4308 c 0,-3.518 -2.0577,-6.4885 -4.8051,-7.2739 V 48.3795 l 2.1291,-1.4106 3.5748,-2.3677 H 40.86 V 80.221 c 0,3.8257 2.2935,7.1017 5.4734,8.3132" /><path
       id="path1027"
       style="fill:#3584c5;fill-opacity:1;fill-rule:evenodd;stroke:none"
       d="M 27.919,60.1569 V 48.3792 L 25.7902,46.9689 22.2157,44.6012 H 12.3959 V 84.617 H 23.1143 V 67.4308 c 0,-3.518 2.0576,-6.4885 4.8047,-7.2739" /><path
       id="path1029"
       style="fill:#ffffff;fill-opacity:1;fill-rule:nonzero;stroke:none"
       d="m 76.1017,22.119 c -2.1013,0 -3.8474,-0.7373 -5.2288,-2.2201 -1.3901,-1.4746 -2.0848,-3.3732 -2.0848,-5.6868 0,-2.3304 0.7035,-4.2455 2.1189,-5.7541 1.415,-1.5004 3.1527,-2.2544 5.2202,-2.2544 2.1272,0 3.8988,0.7373 5.2969,2.2207 1.4071,1.4746 2.1104,3.4152 2.1104,5.8136 0,2.3473 -0.7033,4.246 -2.1104,5.7033 -1.3981,1.4493 -3.178,2.1778 -5.3224,2.1778 z m 7.1277,5.5426 h 6.7629 V 0.661 H 83.2294 V 3.5342 C 81.9074,2.2796 80.5768,1.3816 79.2462,0.8303 77.9153,0.2795 76.4663,0 74.9154,0 c -3.4999,0 -6.5168,1.3476 -9.0677,4.051 -2.5509,2.6949 -3.8223,6.0511 -3.8223,10.0596 0,4.1612 1.2374,7.5682 3.7035,10.2291 2.4659,2.6526 5.4576,3.9832 8.983,3.9832 1.6277,0 3.1442,-0.305 4.568,-0.9071 1.4239,-0.6015 2.7375,-1.5165 3.9495,-2.7201 z m -32.8827,0 h 6.7635 V 0.661 h -6.7635 z m -17.1275,0 h 5.8479 v -3.4322 c 0.6273,1.3391 1.4576,2.3559 2.4914,3.0512 1.0428,0.6948 2.1784,1.0423 3.4072,1.0423 0.8728,0 1.7884,-0.229 2.7456,-0.6953 L 45.6097,21.78 c -0.7883,0.3988 -1.4405,0.5936 -1.9494,0.5936 -1.0337,0 -1.9153,-0.6443 -2.6271,-1.9324 -0.7203,-1.2881 -1.0763,-3.8135 -1.0763,-7.5764 l 0.0258,-1.3136 V 0.661 H 33.2192 Z M 14.0831,22.119 c -2.1013,0 -3.8475,-0.7373 -5.2288,-2.2201 -1.3901,-1.4746 -2.0849,-3.3732 -2.0849,-5.6868 0,-2.3304 0.7036,-4.2455 2.1186,-5.7541 1.4154,-1.5004 3.153,-2.2544 5.2206,-2.2544 2.1271,0 3.8988,0.7373 5.2968,2.2207 1.4071,1.4746 2.1104,3.4152 2.1104,5.8136 0,2.3473 -0.7033,4.246 -2.1104,5.7033 -1.398,1.4493 -3.1779,2.1778 -5.3223,2.1778 z m 7.1277,5.5426 h 6.7629 V 0.661 H 21.2108 V 3.5342 C 19.8887,2.2796 18.5581,1.3816 17.2273,0.8303 15.8967,0.2795 14.4476,0 12.8968,0 9.3969,0 6.3799,1.3476 3.829,4.051 1.2781,6.7459 0.0068,10.1021 0.0068,14.1106 c 0,4.1612 1.2373,7.5682 3.7035,10.2291 2.4658,2.6526 5.4575,3.9832 8.983,3.9832 1.6273,0 3.1441,-0.305 4.568,-0.9071 1.4238,-0.6015 2.7374,-1.5165 3.9495,-2.7201 z" /></g></svg>
